#N canvas 827 239 527 327 12;
#X obj 538 457 dac~;
#X obj 67 342 snake~ in 2, f 12;
#X obj 538 410 snake~ out 2;
#X obj 67 311 pan2~ 0, f 12;
#X obj 127 47 knob 50 -1 1 0 0 pan empty #191919 #696969 #e1e1e1 1 0 0 0 1 270 0 0 0;
#X text 135 27 pan;
#X floatatom 128 287 9 0 0 0 empty pan - 8;
#X obj 67 281 *~ 0.1;
#X obj 67 119 knob 50 0 0.2 0 0 amp empty #191919 #696969 #e1e1e1 1 0 0 0 1 270 0 0 0;
#X text 73 100 amp;
#X floatatom 93 261 6 0 0 0 empty amp - 8;
#X obj 67 232 osc~ 220;
#X obj 67 368 send~ mix 2;
#X obj 538 375 receive~ mix 2;
#X obj 67 47 knob 50 100 1000 2.77 0 freq empty #191919 #696969 #e1e1e1 1 0 0 0 1 270 0 0 100;
#X text 75 27 freq;
#X floatatom 69 211 6 0 0 0 empty freq - 8;
#X obj 162 342 snake~ in 2, f 12;
#X obj 162 311 pan2~ 0, f 12;
#X obj 222 47 knob 50 -1 1 0 0 pan empty #191919 #696969 #e1e1e1 1 0 0 0 1 270 0 0 0;
#X floatatom 223 287 9 0 0 0 empty pan - 8;
#X obj 162 281 *~ 0.1;
#X obj 162 119 knob 50 0 0.2 0 0 amp empty #191919 #696969 #e1e1e1 1 0 0 0 1 270 0 0 0;
#X text 168 100 amp;
#X floatatom 188 261 6 0 0 0 empty amp - 8;
#X obj 162 232 osc~ 220;
#X obj 162 368 send~ mix 2;
#X obj 162 47 knob 50 100 1000 2.77 0 freq empty #191919 #696969 #e1e1e1 1 0 0 0 1 270 0 0 100;
#X floatatom 164 211 6 0 0 0 empty freq - 8;
#X connect 1 0 12 0;
#X connect 2 0 0 0;
#X connect 2 1 0 1;
#X connect 3 0 1 0;
#X connect 3 1 1 1;
#X connect 6 0 3 1;
#X connect 7 0 3 0;
#X connect 10 0 7 1;
#X connect 11 0 7 0;
#X connect 13 0 2 0;
#X connect 16 0 11 0;
#X connect 17 0 26 0;
#X connect 18 0 17 0;
#X connect 18 1 17 1;
#X connect 20 0 18 1;
#X connect 21 0 18 0;
#X connect 24 0 21 1;
#X connect 25 0 21 0;
#X connect 28 0 25 0;
