#N canvas 827 239 527 327 12;
#N canvas 733 172 450 300 ableton_link_connection 0;
#X msg 859 348 tempo \$1;
#X msg 673 348 resolution \$1;
#X msg 769 348 reset \$1 \$2;
#X obj 769 327 pack f f;
#X floatatom 641 450 5 0 0 2 beat_time - - 0;
#X floatatom 586 450 5 0 0 2 phase - - 0;
#X floatatom 530 450 5 0 0 2 step - - 0;
#X floatatom 696 450 5 0 0 2 tempo - - 0;
#X obj 534 327 tgl 15 0 empty empty empty 17 7 0 10 #fcfcfc #000000 #000000 0 1;
#X obj 530 415 abl_link~ 1 0 4 134, f 35;
#X floatatom 859 329 5 0 0 2 tempo - - 0;
#X floatatom 814 308 5 0 0 2 quantum - - 0;
#X floatatom 769 308 5 0 0 2 beat - - 0;
#X floatatom 673 328 5 0 0 2 resolution - - 0;
#X msg 530 349 connect \$1;
#X floatatom 814 444 5 0 0 0 - - - 0;
#X obj 814 415 r #abl_link_num_peers;
#X floatatom 752 450 5 0 0 2 is_playing - - 0;
#X obj 613 328 tgl 15 0 empty empty empty 17 7 0 10 #fcfcfc #000000 #000000 0 1;
#X msg 613 348 play \$1;
#X floatatom 929 329 5 0 0 0 - - - 0;
#X msg 929 348 offset \$1;
#X obj 530 298 inlet;
#X text 520 271 connect;
#X obj 609 298 inlet;
#X text 599 271 play;
#X obj 530 476 outlet;
#X obj 586 476 outlet;
#X obj 641 475 outlet;
#X obj 696 476 outlet;
#X connect 0 0 9 0;
#X connect 1 0 9 0;
#X connect 2 0 9 0;
#X connect 3 0 2 0;
#X connect 4 0 28 0;
#X connect 5 0 27 0;
#X connect 6 0 26 0;
#X connect 7 0 29 0;
#X connect 8 0 14 0;
#X connect 9 0 6 0;
#X connect 9 1 5 0;
#X connect 9 2 4 0;
#X connect 9 3 7 0;
#X connect 9 4 17 0;
#X connect 10 0 0 0;
#X connect 11 0 3 1;
#X connect 12 0 3 0;
#X connect 13 0 1 0;
#X connect 14 0 9 0;
#X connect 16 0 15 0;
#X connect 18 0 19 0;
#X connect 19 0 9 0;
#X connect 20 0 21 0;
#X connect 21 0 9 0;
#X connect 22 0 8 0;
#X connect 24 0 18 0;
#X restore 189 101 pd ableton_link_connection;
#X f 30;
#X obj 189 62 tgl 27 0 empty ableton_connect ableton\ link 0 -12 0 10 #191919 #e1e1e1 #e1e1e1 0 1;
#X floatatom 315 132 5 0 0 3 beat_time - beat_time 0;
#X floatatom 252 132 5 0 0 3 phase - phase 0;
#X floatatom 189 132 5 0 0 3 step - step 0;
#X floatatom 378 132 10 0 0 3 tempo - tempo 12;
#X obj 49 62 tgl 93 0 ableton_connect empty ableton\ link 0 -12 0 10 #191919 #e1e1e1 #e1e1e1 0 1;
#X connect 0 0 4 0;
#X connect 0 1 3 0;
#X connect 0 2 2 0;
#X connect 0 3 5 0;
#X connect 1 0 0 0;
