#N canvas 827 239 527 327 12;
#X obj 90 599 dac~;
#X obj 44 284 mtof;
#X obj 174 49 notein, f 12;
#X text 204 142 velocity;
#X text 300 119 channel;
#X text 141 142 note;
#X floatatom 147 91 4 0 127 0 - - - 0;
#X floatatom 204 91 4 0 127 0 - - - 0;
#X floatatom 300 91 3 1 64 0 - - - 0;
#X obj 141 116 s note;
#X obj 44 255 r note;
#X obj 204 115 s vel;
#X obj 133 384 adsr~;
#X obj 204 317 nbx 4 14 -1e+37 1e+37 0 0 empty empty empty 0 -8 0 10 #dcdcdc #000000 #000000 0 256;
#X obj 259 317 nbx 4 14 -1e+37 1e+37 0 0 empty empty empty 0 -8 0 10 #dcdcdc #000000 #000000 0 256;
#X text 205 299 attack;
#X obj 314 317 nbx 4 14 -1e+37 1e+37 0 0 empty empty empty 0 -8 0 10 #dcdcdc #000000 #000000 0 256;
#X obj 369 317 nbx 4 14 -1e+37 1e+37 0 0 empty empty empty 0 -8 0 10 #dcdcdc #000000 #000000 0 256;
#X text 371 299 release;
#X text 261 299 decay;
#X text 315 299 sustain;
#X obj 90 422 *~;
#X obj 141 203 r vel;
#X obj 141 348 sig~;
#X obj 141 233 / 127;
#X obj 90 464 *~ 0.4;
#X obj 477 608 dac~;
#X obj 434 262 mtof;
#X obj 434 233 r note;
#X obj 523 362 adsr~;
#X obj 594 295 nbx 4 14 -1e+37 1e+37 0 0 empty empty empty 0 -8 0 10 #dcdcdc #000000 #000000 0 256;
#X obj 649 295 nbx 4 14 -1e+37 1e+37 0 0 empty empty empty 0 -8 0 10 #dcdcdc #000000 #000000 0 256;
#X obj 704 295 nbx 4 14 -1e+37 1e+37 0 0 empty empty empty 0 -8 0 10 #dcdcdc #000000 #000000 0 256;
#X obj 759 295 nbx 4 14 -1e+37 1e+37 0 0 empty empty empty 0 -8 0 10 #dcdcdc #000000 #000000 0 256;
#X text 761 277 release;
#X text 651 277 decay;
#X text 705 277 sustain;
#X obj 480 400 *~;
#X obj 531 233 r vel;
#X obj 531 326 sig~;
#X obj 531 263 / 127;
#X obj 480 442 *~ 0.4;
#X text 595 277 attack;
#X obj 90 555 pan2~;
#X obj 287 540 knob 50 -1 1 0 0 empty empty #191919 #696969 #e1e1e1 1 0 0 0 1 270 0 0 0;
#X obj 473 555 pan2~;
#X obj 567 531 knob 50 -1 1 0 0 empty empty #191919 #696969 #e1e1e1 1 0 0 0 1 270 0 0 0;
#X obj 44 348 saw~ 220;
#X obj 434 326 saw~ 220;
#X obj 124 520 lores~;
#X obj 209 464 knob 50 100 2000 0 0 empty empty #191919 #696969 #e1e1e1 1 0 0 0 1 270 0 0 0;
#X obj 287 464 knob 50 0.1 0.5 0 0 empty empty #191919 #696969 #e1e1e1 1 0 0 0 1 270 0 0 0;
#X obj 480 494 lores~;
#X obj 643 438 knob 50 0.1 0.5 0 0 empty empty #191919 #696969 #e1e1e1 1 0 0 0 1 270 0 0 0;
#X obj 579 442 knob 50 100 2000 0 0 empty empty #191919 #696969 #e1e1e1 1 0 0 0 1 270 0 0 0;
#X obj 877 292 * 0.52;
#X obj 932 292 * 0.52;
#X obj 73 314 * 0.5;
#X obj 434 292 * 0.51;
#X connect 1 0 57 0;
#X connect 2 0 6 0;
#X connect 2 1 7 0;
#X connect 2 2 8 0;
#X connect 6 0 9 0;
#X connect 7 0 11 0;
#X connect 10 0 1 0;
#X connect 12 0 21 1;
#X connect 13 0 12 1;
#X connect 14 0 12 2;
#X connect 16 0 12 3;
#X connect 17 0 12 4;
#X connect 21 0 25 0;
#X connect 22 0 24 0;
#X connect 23 0 12 0;
#X connect 24 0 23 0;
#X connect 25 0 49 0;
#X connect 27 0 58 0;
#X connect 28 0 27 0;
#X connect 29 0 37 1;
#X connect 30 0 29 1;
#X connect 31 0 29 2;
#X connect 32 0 29 3;
#X connect 33 0 29 4;
#X connect 37 0 41 0;
#X connect 38 0 40 0;
#X connect 39 0 29 0;
#X connect 40 0 39 0;
#X connect 41 0 52 0;
#X connect 43 0 0 0;
#X connect 43 1 0 1;
#X connect 44 0 43 1;
#X connect 45 0 26 0;
#X connect 45 1 26 1;
#X connect 46 0 45 1;
#X connect 47 0 21 0;
#X connect 48 0 37 0;
#X connect 49 0 43 0;
#X connect 50 0 49 1;
#X connect 51 0 49 2;
#X connect 52 0 45 0;
#X connect 53 0 52 2;
#X connect 54 0 52 1;
#X connect 55 0 48 1;
#X connect 56 0 48 1;
#X connect 57 0 47 0;
#X connect 58 0 48 0;
