#N canvas 827 239 527 327 12;
#X obj 905 271 vsaw~ 220;
#X obj 907 420 pan2~, f 12;
#X obj 907 393 *~ 0.1;
#X obj 907 445 outlet~;
#X obj 968 445 outlet~;
#X obj 922 230 inlet~;
#X obj 905 200 inlet;
#X connect 0 0 2 0;
#X connect 1 0 3 0;
#X connect 1 1 4 0;
#X connect 2 0 1 0;
#X connect 5 0 0 1;
#X connect 6 0 0 0;
