#N canvas 1214 300 527 315 12;
#X msg 394 135 tempo \$1;
#X msg 208 135 resolution \$1;
#X msg 304 135 reset \$1 \$2;
#X obj 304 114 pack f f;
#X floatatom 249 288 8 0 0 1 beat_time - beat_time 0;
#X floatatom 208 329 5 0 0 1 phase - - 0;
#X msg 79 235 \; pd dsp 1;
#X floatatom 181 357 5 0 0 1 step - step 0;
#X floatatom 287 250 5 0 0 1 tempo - tempo 0;
#X obj 65 115 tgl 15 0 empty empty empty 17 7 0 10 #fcfcfc #000000 #000000 0 1;
#X obj 183 198 abl_link~ 1 0 4 134;
#X floatatom 394 116 5 0 0 2 tempo - - 0;
#X floatatom 349 95 5 0 0 2 quantum - - 0;
#X floatatom 304 95 5 0 0 2 beat - - 0;
#X floatatom 208 115 5 0 0 2 resolution - - 0;
#X msg 65 136 connect \$1;
#X floatatom 294 342 5 0 0 0 - - - 0;
#X obj 294 320 r #abl_link_num_peers;
#X floatatom 294 220 5 0 0 1 is_playing - is_playing 0;
#X obj 148 115 tgl 15 0 empty empty empty 17 7 0 10 #fcfcfc #000000 #000000 0 1;
#X msg 148 135 play \$1;
#X floatatom 464 116 5 0 0 0 - - - 0;
#X msg 464 135 offset \$1;
#X obj 63 73 inlet;
#X connect 0 0 10 0;
#X connect 1 0 10 0;
#X connect 2 0 10 0;
#X connect 3 0 2 0;
#X connect 9 0 15 0;
#X connect 10 0 7 0;
#X connect 10 1 5 0;
#X connect 10 2 4 0;
#X connect 10 3 8 0;
#X connect 11 0 0 0;
#X connect 12 0 3 1;
#X connect 13 0 3 0;
#X connect 14 0 1 0;
#X connect 15 0 10 0;
#X connect 17 0 16 0;
#X connect 19 0 20 0;
#X connect 20 0 10 0;
#X connect 21 0 22 0;
#X connect 22 0 10 0;
#X connect 23 0 9 0;
