#N canvas 708 291 595 436 12;
#X obj 54 35 ableton_link;
#X floatatom 79 129 8 0 0 0 beat_time beat_time -;
#X floatatom 172 87 8 0 0 2 tempo tempo -;
#X floatatom 79 189 8 0 0 0 is_playing is_playing -;
#X obj 54 6 tgl 25 0 empty empty connect_link 17 7 0 10 -258113 -1
-1 1 1;
#X obj 143 269 tgl 15 0 empty empty empty 17 7 0 10 -262144 -1 -1 0
1;
#X obj 143 393 midiout;
#X obj 34 296 select 0 1;
#X msg 34 330 252;
#X msg 71 330 250;
#X msg 143 323 248;
#X obj 143 293 metro 20.8333;
#X floatatom 241 265 12 0 0 0 - - -;
#X obj 198 240 expr (60000/$f1/24);
#X text 191 211 BPM-->;
#X obj 246 212 inlet;
#X obj 258 137 < 1;
#X obj 55 81 hradio 25 1 0 4 empty step step 0 -8 0 10 -258113 -1 -1
3;
#X obj 172 111 ui.knob @size 40 40 @receive "(null)" @send "(null)"
@pinned 0 @presetname "ui.knob.0" @mouse_events 0 @background_color
0.93 0.93 0.93 1 @border_color 0.6 0.6 0.6 1 @label_color 0 0 0 1 @scale_color
0.6 0.6 0.6 1 @knob_color 0 0.75 1 1 @fontname "Helvetica" @fontweight
"normal" @fontslant "roman" @fontsize 11 @label "(null)" @label_inner
0 @label_side "top" @label_align "left" @label_valign "top" @label_margins
0 0 @min 0 @max 250 @scale "linear" @midi_channel 0 @midi_control 0
@midi_pickup 1 @show_range 0 @show_value 0 @active_scale 0;
#X connect 2 0 13 0;
#X connect 2 0 18 0;
#X connect 4 0 0 0;
#X connect 5 0 7 0;
#X connect 5 0 11 0;
#X connect 7 0 8 0;
#X connect 7 1 9 0;
#X connect 8 0 6 0;
#X connect 9 0 6 0;
#X connect 10 0 6 0;
#X connect 11 0 10 0;
#X connect 12 0 11 1;
#X connect 13 0 12 0;
#X connect 15 0 13 0;
