#N canvas 71 617 650 383 12;
#X obj 678 266 ableton_link;
#X floatatom 86 479 5 0 0 2 step step - 0;
#X floatatom 132 673 8 0 0 2 tempo tempo - 0;
#X floatatom 747 204 8 0 0 0 is_playing is_playing - 0;
#X obj 677 241 tgl 15 0 empty link empty 17 7 0 10 #fcfcfc #000000 #000000 0 1;
#X obj 86 601 tgl 15 0 empty empty empty 17 7 0 10 #fcfcfc #000000 #000000 0 1;
#N canvas 1005 187 700 500 midiconnect 0;
#X obj 209 168 tgl 15 0 empty empty empty 17 7 0 10 #fcfcfc #000000 #000000 0 1;
#X obj 217 331 midiout;
#X obj 108 234 select 0 1;
#X msg 108 268 252;
#X msg 145 268 250;
#X msg 217 261 248;
#X obj 217 231 metro 20.8333;
#X floatatom 315 203 12 0 0 0 - - - 0;
#X obj 272 178 expr (60000/$f1/24);
#X text 265 149 BPM-->;
#X obj 320 150 inlet;
#X obj 106 86 inlet;
#X connect 0 0 2 0;
#X connect 0 0 6 0;
#X connect 2 0 3 0;
#X connect 2 1 4 0;
#X connect 3 0 1 0;
#X connect 4 0 1 0;
#X connect 5 0 1 0;
#X connect 6 0 5 0;
#X connect 7 0 6 1;
#X connect 8 0 7 0;
#X connect 10 0 8 0;
#X connect 11 0 0 0;
#X restore 86 703 pd midiconnect;
#X obj 677 331 bng 30 250 50 0 empty reset_reloj reset_reloj 0 -10 0 15 #e0c4fc #000000 #000000;
#X floatatom 777 425 5 0 0 3 segundos - seconds 0;
#X floatatom 678 431 5 0 0 3 minutos - minutes 0;
#N canvas 1059 201 700 500 reloj 0;
#X obj 128 99 timer;
#X obj 128 74 bng 15 250 50 0 empty empty reset 0 -10 0 10 #fcfcfc #000000 #000000;
#X obj 160 75 bng 15 250 50 0 empty empty elapsed_time 0 -10 0 10 #fcfcfc #000000 #000000;
#X msg 184 79 tempo 1 sec;
#X floatatom 128 128 5 0 0 0 segundos - - 0;
#X obj 187 154 % 60;
#X floatatom 187 227 5 0 0 3 segundos - - 0;
#X obj 128 153 / 60;
#X floatatom 127 233 5 0 0 3 minutos - - 0;
#N canvas 531 614 700 500 reloj 0;
#X restore 296 163 pd reloj;
#X obj 89 30 inlet;
#X obj 159 28 inlet;
#X obj 255 44 loadbang;
#X obj 126 279 outlet;
#X obj 189 274 outlet;
#X obj 128 205 change 1;
#X obj 196 199 change 1;
#X obj 128 178 % 120;
#X connect 0 0 4 0;
#X connect 1 0 0 0;
#X connect 2 0 0 1;
#X connect 3 0 0 0;
#X connect 4 0 5 0;
#X connect 4 0 7 0;
#X connect 5 0 16 0;
#X connect 6 0 14 0;
#X connect 7 0 17 0;
#X connect 8 0 13 0;
#X connect 10 0 1 0;
#X connect 11 0 2 0;
#X connect 12 0 3 0;
#X connect 15 0 8 0;
#X connect 16 0 6 0;
#X connect 17 0 15 0;
#X restore 677 388 pd reloj;
#X f 11;
#X obj 86 548 < 2;
#X floatatom 523 700 5 0 0 0 - - inicio 0;
#X floatatom 567 695 5 0 0 0 - - transicion 0;
#X floatatom 608 694 5 0 0 0 - - final 0;
#X obj 266 417 nbx 5 14 -1e+37 1e+37 0 0 empty semaforo semáforo 0 -8 0 10 #14e814 #000000 #000000 0 256;
#X msg 509 620 robot 0 4.5 5;
#X msg 501 587 tecno1 0.5 4.5 5;
#X obj 500 671 unpack s f f f;
#X symbolatom 500 725 10 0 0 0 - - cancion 0;
#X obj 266 447 nbx 5 14 -1e+37 1e+37 0 0 empty semaforo semáforo 0 -8 0 10 #14e814 #000000 #000000 0 256;
#X obj 751 358 r beat_time;
#N canvas 207 229 1068 500 semafor0 0;
#X floatatom 62 95 5 0 0 0 - - - 0;
#X msg 62 119 color \$1;
#X msg 61 57 106;
#X msg 166 82 13;
#X obj 62 151 s semaforo;
#X msg 124 61 105;
#X obj 166 58 r rojo;
#X obj 61 30 r verde;
#X obj 124 32 r amarillo;
#X obj 232 123 timer;
#X obj 232 98 bng 15 250 50 0 empty empty reset 0 -10 0 10 #fcfcfc #000000 #000000;
#X msg 288 103 tempo 1 sec;
#X msg 263 80 bang;
#X obj 232 180 moses 0;
#X obj 278 207 moses 4.5;
#X obj 338 233 moses 5;
#X obj 278 153 r inicio;
#X obj 289 179 r transicion;
#X obj 353 207 r final;
#X msg 286 131 6;
#X obj 278 259 s verde;
#X obj 338 259 s amarillo;
#X obj 220 230 s rojo;
#X obj 363 140 s semaforo;
#X obj 296 43 inlet;
#X text 228 8 reset;
#X obj 236 38 inlet;
#X obj 345 58 loadbang;
#X obj 147 235 outlet;
#X msg 147 208 bang;
#X obj 232 154 / 60;
#X connect 0 0 1 0;
#X connect 1 0 4 0;
#X connect 2 0 0 0;
#X connect 3 0 0 0;
#X connect 5 0 0 0;
#X connect 6 0 3 0;
#X connect 7 0 2 0;
#X connect 8 0 5 0;
#X connect 9 0 30 0;
#X connect 10 0 9 0;
#X connect 11 0 9 0;
#X connect 12 0 9 1;
#X connect 13 0 22 0;
#X connect 13 1 14 0;
#X connect 14 0 20 0;
#X connect 14 1 15 0;
#X connect 15 0 21 0;
#X connect 15 1 22 0;
#X connect 15 1 29 0;
#X connect 16 0 13 1;
#X connect 17 0 14 1;
#X connect 18 0 15 1;
#X connect 19 0 30 1;
#X connect 24 0 10 0;
#X connect 26 0 12 0;
#X connect 27 0 11 0;
#X connect 27 0 10 0;
#X connect 29 0 28 0;
#X connect 30 0 13 0;
#X connect 30 0 23 0;
#X restore 754 505 pd semafor0;
#X obj 872 497 bng 15 250 50 0 empty empty empty 17 7 0 10 #fcfcfc #000000 #000000;
#X obj 755 541 bng 15 250 50 0 empty empty empty 17 7 0 10 #fcfcfc #000000 #000000;
#X obj 787 578 + 1;
#X floatatom 824 577 5 0 0 0 - - - 0;
#X msg 787 550 1;
#X obj 824 621 sel 1 2 3 4 5 6 7 8;
#X text 861 580 cancion;
#X obj 601 645 r cancion;
#X msg 824 693 robot 0 4.5 5;
#X msg 840 666 tecno1 0.5 4.5 5;
#X msg 827 551 0;
#X obj 842 761 s cancion;
#X text 859 550 reset cancion;
#X obj 394 43 nbx 3 40 -1e+37 1e+37 0 0 empty seconds sec 0 -20 0 30 #e0c4fc #000000 #ffffff 0 256;
#X obj 284 43 nbx 3 40 -1e+37 1e+37 0 0 empty minutes min 0 -20 0 30 #e0c4fc #000000 #ffffff 0 256;
#X obj 170 44 nbx 3 40 -1e+37 1e+37 0 0 empty step step 0 -20 0 30 #fcfcc4 #000000 #ffffff 0 256;
#X obj 69 421 nbx 4 40 -1e+37 1e+37 0 0 empty semaforo semáforo 0 -20 0 40 #14e814 #000000 #000000 0 256;
#X obj 65 43 nbx 3 40 -1e+37 1e+37 0 0 empty tempo tempo 0 -20 0 30 #180086 #ffffff #ffffff 0 256;
#X text 243 176 robot;
#X text 492 249 infernoise;
#X text 487 175 discreto;
#X obj 86 578 spigot, f 12;
#X obj 171 488 tgl 30 0 empty sync_midi sync_midi 0 -10 0 15 #fcc4c4 #000000 #000000 0 1;
#X obj 111 614 delay 0.3;
#X obj 106 643 s unsync_midi;
#X obj 258 120 tgl 30 0 sync_midi unsync_midi sync_midi 0 -10 0 15 #fcc4c4 #000000 #ffffff 0 1;
#X obj 131 536 spigot, f 7;
#X obj 103 514 > 3;
#X obj 461 120 tgl 30 0 link empty link 0 -10 0 15 #c4fcc4 #000000 #ffffff 0 1;
#X obj 351 120 bng 30 250 50 0 reset_reloj empty reset_reloj 0 -10 0 15 #e0c4fc #000000 #ffffff;
#X obj 64 124 nbx 3 40 -1e+37 1e+37 0 0 tempopd empty set_tempo 0 -20 0 30 #c4fcfc #000000 #ffffff 0 256;
#X floatatom 760 235 5 0 0 0 - tempopd - 0;
#X text 301 250 Gsus;
#X text 347 248 cineasta;
#X text 331 176 tek02;
#X text 374 176 tek03;
#X text 432 249 jungla;
#X text 199 250 mui.selestial;
#X text 289 175 tek01;
#X text 126 175 wavetable;
#X text 266 273 133;
#X text 248 198 139;
#X text 347 269 141;
#X text 294 196 143;
#X text 386 199 147;
#X text 485 196 155;
#X text 432 200 152;
#X text 420 176 recreo;
#X text 196 177 tek04;
#X text 151 199 133;
#X text 487 156 encore;
#X obj 206 131 bng 25 250 50 0 empty resync_midi empty 17 7 0 10 #191919 #e1e1e1 #e1e1e1;
#X connect 1 0 11 0;
#X connect 1 0 50 0;
#X connect 2 0 6 1;
#X connect 4 0 0 0;
#X connect 5 0 6 0;
#X connect 5 0 46 0;
#X connect 7 0 10 0;
#X connect 10 0 9 0;
#X connect 10 1 8 0;
#X connect 10 1 22 0;
#X connect 11 0 44 0;
#X connect 16 0 18 0;
#X connect 17 0 18 0;
#X connect 18 0 19 0;
#X connect 18 1 12 0;
#X connect 18 2 13 0;
#X connect 18 3 14 0;
#X connect 21 0 10 1;
#X connect 22 0 24 0;
#X connect 22 0 23 0;
#X connect 23 0 22 1;
#X connect 24 0 27 0;
#X connect 25 0 26 0;
#X connect 26 0 25 1;
#X connect 26 0 28 0;
#X connect 27 0 25 0;
#X connect 28 0 31 0;
#X connect 28 1 32 0;
#X connect 30 0 18 0;
#X connect 31 0 34 0;
#X connect 32 0 34 0;
#X connect 33 0 26 0;
#X connect 44 0 5 0;
#X connect 45 0 49 1;
#X connect 46 0 47 0;
#X connect 49 0 44 1;
#X connect 50 0 49 0;
#X connect 54 0 0 1;
#X connect 74 0 48 0;
