#N canvas 1197 154 574 595 10;
#X obj 168 13 tgl 15 0 empty empty empty 17 7 0 10 -262144 -1 -1 1
1;
#X obj 168 55 moses 1;
#X msg 246 122 250;
#X obj 393 344 midiout;
#X obj 214 90 t f b;
#X msg 214 181 248;
#X text 292 122 2r11111010 \, clock start;
#X msg 168 181 252;
#X obj 214 154 metro 0 21 msec;
#X obj 168 90 t b f;
#X obj 370 190 bng 15 250 50 0 empty empty empty 17 7 0 10 -262144
-1 -1;
#X msg 446 292 0;
#X obj 120 384 noteout;
#X obj 120 341 makenote 64 250;
#X msg 120 302 60;
#X connect 0 0 1 0;
#X connect 1 0 9 0;
#X connect 1 1 4 0;
#X connect 2 0 3 0;
#X connect 4 0 8 0;
#X connect 4 1 2 0;
#X connect 5 0 3 0;
#X connect 7 0 3 0;
#X connect 8 0 5 0;
#X connect 8 0 10 0;
#X connect 9 0 7 0;
#X connect 9 1 8 0;
#X connect 11 0 3 1;
#X connect 13 0 12 0;
#X connect 13 1 12 1;
#X connect 14 0 13 0;
