#N canvas 827 239 527 327 12;
#X obj 144 467 ctl.in, f 12;
#X obj 144 193 vsl 30 67 0 1 0 0 empty f1 ch1 0 80 0 10 #191919 #e1e1e1 #e1e1e1 0 1;
#X obj 144 503 pack f f f;
#X obj 144 525 s midictl;
#X obj 144 630 r midictl;
#X floatatom 340 678 4 0 0 3 value - - 12;
#X floatatom 302 678 5 0 0 3 ctl - - 12;
#X floatatom 264 678 5 0 0 3 ch - ch 12;
#X obj 264 656 unpack f f f;
#X obj 144 678 route 1;
#X text 80 703 chan 1;
#X obj 144 716 route 114 18 19 16 17 91 79 72, f 43;
#X text 80 723 faders (control) 1 - 8, f 7;
#X obj 144 792 s f1, f 3;
#X obj 179 792 s f2, f 3;
#X obj 182 193 vsl 33 67 0 1 0 0 empty f2 ch2 0 80 0 10 #191919 #e1e1e1 #e1e1e1 0 1;
#X obj 214 792 s f3, f 3;
#X obj 249 792 s f4, f 3;
#X obj 284 792 s f5, f 3;
#X obj 319 792 s f6, f 3;
#X obj 354 792 s f7, f 3;
#X obj 389 792 s f8, f 3;
#X obj 224 193 vsl 33 67 0 1 0 0 empty f3 ch3 0 80 0 10 #191919 #e1e1e1 #e1e1e1 0 1;
#X obj 264 193 vsl 33 67 0 1 0 0 empty f4 ch4 0 80 0 10 #191919 #e1e1e1 #e1e1e1 0 1;
#X obj 304 193 vsl 33 67 0 1 0 0 empty f5 ch5 0 80 0 10 #191919 #e1e1e1 #e1e1e1 0 1;
#X obj 345 193 vsl 33 67 0 1 0 0 empty f6 ch6 0 80 0 10 #191919 #e1e1e1 #e1e1e1 0 1;
#X obj 386 193 vsl 33 67 0 1 0 0 empty f7 ch7 0 80 0 10 #191919 #e1e1e1 #e1e1e1 0 1;
#X obj 427 193 vsl 33 67 0 1 0 0 empty f8 ch8 0 80 0 10 #191919 #e1e1e1 #e1e1e1 0 1;
#X obj 144 746 / 127, f 5;
#X obj 179 746 / 127, f 5;
#X obj 214 746 / 127, f 5;
#X obj 249 746 / 127, f 5;
#X obj 284 746 / 127, f 5;
#X obj 319 746 / 127, f 5;
#X obj 389 746 / 127, f 5;
#X obj 354 746 / 127, f 5;
#X text 144 590 Control de Faders, f 31;
#X obj 472 630 r midictl;
#X obj 472 678 route 1;
#X obj 472 746 / 127, f 5;
#X obj 519 746 / 127, f 5;
#X obj 568 746 / 127, f 5;
#X obj 613 746 / 127, f 5;
#X obj 661 746 / 127, f 5;
#X obj 708 746 / 127, f 5;
#X obj 802 746 / 127, f 5;
#X obj 755 746 / 127, f 5;
#X text 472 590 Control de Knobs, f 31;
#X obj 144 142 knob 30 0 1 0 0 empty kb1 #191919 #696969 #E1E1E1 1 0 0 0 1 270 0 0 0;
#X obj 472 786 s kb1, f 5;
#X obj 519 786 s kb2, f 5;
#X obj 568 786 s kb3, f 5;
#X obj 613 786 s kb4, f 5;
#X obj 661 786 s kb5, f 6;
#X obj 708 786 s kb6, f 6;
#X obj 755 786 s kb7, f 5;
#X obj 802 786 s kb8, f 6;
#X obj 182 142 knob 30 0 1 0 0 empty kb2 #191919 #696969 #E1E1E1 1 0 0 0 1 270 0 0 0;
#X obj 224 142 knob 30 0 1 0 0 empty kb3 #191919 #696969 #E1E1E1 1 0 0 0 1 270 0 0 0;
#X obj 264 142 knob 30 0 1 0 0 empty kb4 #191919 #696969 #E1E1E1 1 0 0 0 1 270 0 0 0;
#X obj 304 142 knob 30 0 1 0 0 empty kb5 #191919 #696969 #E1E1E1 1 0 0 0 1 270 0 0 0;
#X obj 345 142 knob 30 0 1 0 0 empty kb6 #191919 #696969 #E1E1E1 1 0 0 0 1 270 0 0 0;
#X obj 386 142 knob 30 0 1 0 0 empty kb7 #191919 #696969 #E1E1E1 1 0 0 0 1 270 0 0 0;
#X obj 427 142 knob 30 0 1 0 0 empty kb8 #191919 #696969 #E1E1E1 1 0 0 0 1 270 0 0 0;
#X obj 472 716 route 7 74 71 76 77 93 73 75, f 57;
#X obj 144 878 r f1, f 5;
#X msg 722 473 disconnect;
#X msg 144 902 /fader1 \$1, f 8;
#X obj 667 512 osc.send 8086;
#X obj 667 542 tgl 25 0 empty empty empty 17 7 0 10 #191919 #e1e1e1 #e1e1e1 0 1;
#X msg 693 446 connect localhost 8086;
#X obj 199 878 r f2, f 5;
#X msg 199 902 /fader2 \$1, f 8;
#X obj 262 880 r f3, f 5;
#X msg 262 902 /fader3 \$1, f 8;
#X obj 326 880 r f4, f 5;
#X msg 326 902 /fader4 \$1, f 8;
#X msg 144 1024 /fader5 \$1, f 8;
#X obj 144 948 s toOsc, f 6;
#X obj 667 420 r toOsc;
#X obj 199 948 s toOsc, f 6;
#X obj 262 948 s toOsc, f 6;
#X obj 326 948 s toOsc, f 6;
#X obj 144 1070 s toOsc, f 6;
#X obj 144 1002 r f5, f 5;
#X obj 428 465 r midictl, f 11;
#X obj 428 491 route 1, f 9;
#X obj 428 543 bng 24 250 50 0 resync_midi empty empty 17 7 0 10 #191919 #e1e1e1 #e1e1e1;
#X obj 428 517 route 2, f 9;
#X text 428 419 resync (botón PLAY), f 14;
#X obj 144 17 bng 57 250 50 0 empty resync_midi resync 17 7 0 10 #191919 #e1e1e1 #e1e1e1;
#X floatatom 224 37 3 0 0 2 tempo tempo - 16;
#X floatatom 280 37 3 0 0 2 step step - 16;
#X floatatom 339 37 3 0 0 2 min minutes - 16;
#X floatatom 382 37 3 0 0 2 sec seconds - 16;
#X obj 427 34 bng 25 250 50 0 reset_reloj empty reset 0 -10 0 10 #191919 #e1e1e1 #e1e1e1;
#X obj 548 467 r midictl, f 11;
#X obj 548 493 route 1, f 9;
#X obj 548 545 bng 24 250 50 0 reset_reloj empty empty 17 7 0 10 #191919 #e1e1e1 #e1e1e1;
#X text 548 419 reset clock (botón STOP), f 12;
#X obj 548 519 route 1, f 9;
#X text 81 877 OSC send, f 7;
#X floatatom 255 88 3 0 0 2 channel ch - 16;
#X obj 212 1070 s toOsc, f 6;
#X obj 276 1070 s toOsc, f 6;
#X obj 335 1070 s toOsc, f 6;
#X obj 212 1002 r f6, f 5;
#X msg 212 1024 /fader6 \$1, f 8;
#X obj 276 1002 r f7, f 5;
#X msg 276 1024 /fader7 \$1, f 8;
#X obj 335 1002 r f8, f 5;
#X msg 335 1024 /fader8 \$1, f 8;
#X obj 464 948 s toOsc, f 6;
#X obj 519 948 s toOsc, f 6;
#X obj 582 948 s toOsc, f 6;
#X obj 646 948 s toOsc, f 6;
#X obj 464 1070 s toOsc, f 6;
#X obj 532 1070 s toOsc, f 6;
#X obj 596 1070 s toOsc, f 6;
#X obj 655 1070 s toOsc, f 6;
#X obj 464 878 r kb1;
#X obj 519 878 r kb2;
#X obj 582 880 r kb3, f 6;
#X obj 646 880 r kb4;
#X obj 464 1002 r kb5;
#X obj 532 1002 r kb6;
#X obj 596 1002 r kb7;
#X obj 655 1002 r kb8;
#X msg 464 902 /knob1 \$1, f 8;
#X msg 519 902 /knob2 \$1, f 8;
#X msg 582 902 /knob3 \$1, f 8;
#X msg 646 902 /knob4 \$1, f 8;
#X msg 464 1024 /knob5 \$1, f 8;
#X msg 532 1024 /knob6 \$1, f 8;
#X msg 596 1024 /knob7 \$1, f 8;
#X msg 655 1024 /knob8 \$1, f 8;
#X obj 804 28 notein, f 18;
#X floatatom 804 54 5 0 0 0 - - - 12;
#X floatatom 854 54 5 0 0 0 - - - 12;
#X floatatom 905 54 5 0 0 0 - - - 12;
#X obj 810 223 noteout;
#X obj 905 217 note.out;
#X floatatom 571 34 3 0 0 2 step step - 16;
#X obj 571 63 sel 1 2 3 4, f 24;
#X obj 571 128 bng 25 250 50 0 empty empty empty 17 7 0 10 #191919 #e1e1e1 #e1e1e1;
#X obj 607 128 bng 25 250 50 0 empty empty empty 17 7 0 10 #191919 #e1e1e1 #e1e1e1;
#X obj 644 128 bng 25 250 50 0 empty empty empty 17 7 0 10 #191919 #e1e1e1 #e1e1e1;
#X obj 680 128 bng 25 250 50 0 empty empty empty 17 7 0 10 #191919 #e1e1e1 #e1e1e1;
#X obj 607 238 bng 25 250 50 0 empty empty empty 17 7 0 10 #191919 #e1e1e1 #e1e1e1;
#X obj 726 154 tgl 25 0 empty empty empty 17 7 0 10 #191919 #e1e1e1 #e1e1e1 0 1;
#X obj 607 191 tempo 280;
#X msg 607 282 /percu 0.1, f 18;
#X obj 607 331 s toOsc, f 9;
#X obj 947 164 makenote;
#X msg 810 142 64 127 1;
#X msg 842 180 64 0 1;
#X connect 0 0 2 2;
#X connect 0 1 2 1;
#X connect 0 2 2 0;
#X connect 2 0 3 0;
#X connect 4 0 9 0;
#X connect 4 0 8 0 32.................D....PE....A....TA...b.....;
#X connect 8 0 7 0;
#X connect 8 1 6 0;
#X connect 8 2 5 0;
#X connect 9 0 11 0;
#X connect 11 0 28 0;
#X connect 11 1 29 0;
#X connect 11 2 30 0;
#X connect 11 3 31 0;
#X connect 11 4 32 0;
#X connect 11 5 33 0;
#X connect 11 6 35 0;
#X connect 11 7 34 0;
#X connect 28 0 13 0;
#X connect 29 0 14 0;
#X connect 30 0 16 0;
#X connect 31 0 17 0;
#X connect 32 0 18 0;
#X connect 33 0 19 0;
#X connect 34 0 21 0;
#X connect 35 0 20 0;
#X connect 37 0 38 0;
#X connect 38 0 64 0;
#X connect 39 0 49 0;
#X connect 40 0 50 0;
#X connect 41 0 51 0;
#X connect 42 0 52 0;
#X connect 43 0 53 0;
#X connect 44 0 54 0;
#X connect 45 0 56 0;
#X connect 46 0 55 0;
#X connect 64 0 39 0;
#X connect 64 1 40 0;
#X connect 64 2 41 0;
#X connect 64 3 42 0;
#X connect 64 4 43 0;
#X connect 64 5 44 0;
#X connect 64 6 46 0;
#X connect 64 7 45 0;
#X connect 65 0 67 0;
#X connect 66 0 68 0;
#X connect 67 0 78 0;
#X connect 68 0 69 0;
#X connect 70 0 68 0;
#X connect 71 0 72 0;
#X connect 72 0 80 0;
#X connect 73 0 74 0;
#X connect 74 0 81 0;
#X connect 75 0 76 0;
#X connect 76 0 82 0;
#X connect 77 0 83 0;
#X connect 79 0 68 0;
#X connect 84 0 77 0;
#X connect 85 0 86 0;
#X connect 86 0 88 0;
#X connect 88 0 87 0;
#X connect 96 0 97 0;
#X connect 97 0 100 0;
#X connect 100 0 98 0;
#X connect 106 0 107 0;
#X connect 107 0 103 0;
#X connect 108 0 109 0;
#X connect 109 0 104 0;
#X connect 110 0 111 0;
#X connect 111 0 105 0;
#X connect 120 0 128 0;
#X connect 121 0 129 0;
#X connect 122 0 130 0;
#X connect 123 0 131 0;
#X connect 124 0 132 0;
#X connect 125 0 133 0;
#X connect 126 0 134 0;
#X connect 127 0 135 0;
#X connect 128 0 112 0;
#X connect 129 0 113 0;
#X connect 130 0 114 0;
#X connect 131 0 115 0;
#X connect 132 0 116 0;
#X connect 133 0 117 0;
#X connect 134 0 118 0;
#X connect 135 0 119 0;
#X connect 136 0 137 0;
#X connect 136 1 138 0;
#X connect 136 2 139 0;
#X connect 142 0 143 0;
#X connect 143 0 144 0;
#X connect 143 1 145 0;
#X connect 143 2 146 0;
#X connect 143 3 147 0;
#X connect 144 0 150 0;
#X connect 148 0 151 0;
#X connect 149 0 150 0;
#X connect 150 0 148 0;
#X connect 151 0 152 0;
#X connect 154 0 140 0;
#X connect 155 0 140 0;
