#N canvas 827 239 527 327 12;
#X obj 73 100 tgl 51 0 empty play play 1 12 0 10 #191919 #e1e1e1 #e1e1e1 0 1;
#X obj 133 100 tgl 51 0 empty rec rec 3 12 0 10 #191919 #e1e1e1 #e1e1e1 0 1;
#X floatatom 131 197 5 0 0 1 end end - 16;
#X obj 73 170 tgl 49 0 empty loop loop 3 12 0 12 #191919 #e1e1e1 #e1e1e1 0 1;
#X floatatom 242 109 6 0 0 3 bpm bpm - 16;
#X floatatom 242 184 6 0 0 3 lastbar lastbar - 16;
#X obj 73 33 from_daw;
#X floatatom 131 170 5 0 0 1 begin begin - 16;
#X floatatom 303 184 10 0 0 3 timesec timesec - 16;
#X floatatom 303 109 10 0 0 3 compas compas - 16;
#X obj 589 100 r compas;
#X obj 589 155 mod 4;
#X floatatom 589 211 7 0 0 0 empty - s4 10;
#X obj 435 100 r compas;
#X floatatom 435 211 7 0 0 0 empty - s16 10;
#X obj 435 129 * 4, f 5;
#X obj 508 100 r compas;
#X floatatom 508 211 7 0 0 0 empty - s8 10;
#X obj 508 129 * 2;
#X obj 435 155 mod 16;
#X obj 508 155 mod 8;
#X msg 199 291 bang;
#X floatatom 110 377 5 0 0 0 empty - - 12;
#X obj 435 184 change;
#X obj 508 184 change;
#X obj 589 184 change;
#X obj 199 439 cycle~ 220;
#X obj 199 533 dac~, f 8;
#X obj 199 469 *~ 0.1;
#X msg 318 291 bang;
#X obj 318 439 cycle~ 220;
#X obj 318 533 dac~, f 8;
#X obj 318 469 *~ 0.1;
#X obj 199 500 pan2~ -1;
#X obj 318 500 pan2~ 1;
#X obj 199 360 + 1;
#X obj 318 358 + 1;
#X obj 318 259 r s4, f 6;
#X obj 199 259 r s8, f 6;
#X obj 318 397 * 120;
#X obj 199 397 * 80;
#X obj 199 323 random 5;
#X obj 318 323 random 5;
#X connect 10 0 11 0;
#X connect 11 0 25 0;
#X connect 13 0 15 0;
#X connect 15 0 19 0;
#X connect 16 0 18 0;
#X connect 18 0 20 0;
#X connect 19 0 23 0;
#X connect 20 0 24 0;
#X connect 21 0 41 0;
#X connect 23 0 14 0;
#X connect 24 0 17 0;
#X connect 25 0 12 0;
#X connect 26 0 28 0;
#X connect 28 0 33 0;
#X connect 29 0 42 0;
#X connect 30 0 32 0;
#X connect 32 0 34 0;
#X connect 33 0 27 0;
#X connect 33 1 27 1;
#X connect 34 0 31 0;
#X connect 34 1 31 1;
#X connect 35 0 40 0;
#X connect 36 0 39 0;
#X connect 37 0 29 0;
#X connect 38 0 21 0;
#X connect 39 0 30 0;
#X connect 40 0 22 0;
#X connect 40 0 26 0;
#X connect 41 0 35 0;
#X connect 42 0 36 0;
