#N canvas 827 239 527 327 12;
#X obj 720 530 dac~;
#X obj 91 49 knob 55 100 10000 2 0 lpfreq empty #191919 #696969 #e1e1e1 1 1 0 0 1 270 0 0 0;
#X obj 94 692 throw~ mixL;
#X obj 132 670 throw~ mixR;
#X obj 720 329 catch~ mixL;
#X obj 738 360 catch~ mixR;
#X obj 689 93 knob 50 0 1 0 0 empty empty #191919 #696969 #e1e1e1 1 0 0 0 1 270 0 0 0;
#X floatatom 902 155 5 0 0 0 empty - - 12;
#X obj 132 320 mtof;
#X obj 362 150 osc~ 1;
#X msg 384 93 include propios/sintetizador.pd;
#X obj 94 463 propios/sintetizador;
#X obj 372 463 propios/sintetizador;
#X obj 200 424 catch~ lfo;
#X obj 362 184 throw~ lfo;
#X obj 478 424 catch~ lfo;
#X obj 372 609 throw~ mixL;
#X obj 478 609 throw~ mixR;
#X obj 278 424 mtof;
#X obj 94 424 r nota1;
#X obj 132 353 s nota1;
#X obj 372 424 r nota2;
#X floatatom 495 281 5 0 0 0 empty - - 12;
#X obj 129 241 bng 25 250 50 0 empty empty empty 17 7 0 10 #191919 #e1e1e1 #e1e1e1;
#X text 129 211 nota 1;
#X msg 129 281 62;
#X obj 94 626 pan2~ 0;
#X obj 372 566 pan2~ 0;
#X obj 94 592 bob~;
#X obj 372 520 bob~;
#X msg 267 515 2500;
#X obj 109 550 r lpfreq;
#X floatatom 91 109 8 0 0 0 empty lpfreq - 12;
#X text 98 29 lp freq;
#X connect 4 0 0 0;
#X connect 5 0 0 1;
#X connect 6 0 7 0;
#X connect 8 0 20 0;
#X connect 9 0 14 0;
#X connect 11 0 28 0;
#X connect 12 0 29 0;
#X connect 13 0 11 1;
#X connect 15 0 12 1;
#X connect 19 0 11 0;
#X connect 21 0 12 0;
#X connect 23 0 25 0;
#X connect 25 0 8 0;
#X connect 26 0 2 0;
#X connect 26 1 3 0;
#X connect 27 0 16 0;
#X connect 27 1 17 0;
#X connect 28 0 26 0;
#X connect 29 0 27 0;
#X connect 31 0 28 1;
